<svg xmlns="http://www.w3.org/2000/svg" xmlns:xlink="http://www.w3.org/1999/xlink" width="1920" height="9010" viewBox="0 0 1920 9010">
  <defs>
    <clipPath id="clip-path">
      <rect id="Rectangle_156" data-name="Rectangle 156" width="69.635" height="69.635" fill="#fff" stroke="#707070" stroke-width="1"/>
    </clipPath>
    <clipPath id="clip-path-2">
      <rect id="Rectangle_159" data-name="Rectangle 159" width="87" height="87" fill="#fff" stroke="#707070" stroke-width="1"/>
    </clipPath>
    <clipPath id="clip-path-3">
      <rect id="Rectangle_172" data-name="Rectangle 172" width="63.746" height="63.746" fill="#fff" stroke="#707070" stroke-width="1"/>
    </clipPath>
    <clipPath id="clip-path-6">
      <rect id="Rectangle_169" data-name="Rectangle 169" width="105.464" height="105.464" fill="#fff" stroke="#707070" stroke-width="1"/>
    </clipPath>
    <clipPath id="clip-path-7">
      <rect id="Rectangle_162" data-name="Rectangle 162" width="31" height="31" fill="#fff" stroke="#707070" stroke-width="1"/>
    </clipPath>
    <clipPath id="clip-path-8">
      <rect id="Rectangle_164" data-name="Rectangle 164" width="29.5" height="29.5" fill="#fff" stroke="#707070" stroke-width="1"/>
    </clipPath>
    <clipPath id="clip-path-9">
      <rect id="Rectangle_165" data-name="Rectangle 165" width="53" height="53" fill="#fff" stroke="#707070" stroke-width="1"/>
    </clipPath>
  </defs>
  <g id="Group_32" data-name="Group 32" transform="translate(0 -1076)">
    <rect id="Rectangle_17" data-name="Rectangle 17" width="1920" height="1863.511" transform="translate(0 1076)" fill="#17252a"/>
    <g id="Group_31" data-name="Group 31" transform="translate(104 1103)">
      <g id="Pattern1" transform="translate(25 261)">
        <rect id="Rectangle_152" data-name="Rectangle 152" width="62.283" height="62.283" fill="#3aafa9"/>
        <rect id="Rectangle_151" data-name="Rectangle 151" width="35.133" height="35.133" transform="translate(13.628 13.628)" fill="#17252a"/>
      </g>
      <rect id="Rectangle_153" data-name="Rectangle 153" width="33" height="33" transform="translate(102 142)" fill="#3aafa9"/>
      <g id="Group_30" data-name="Group 30" transform="translate(1322.387 678.877)">
        <g id="Layer_2" data-name="Layer 2">
          <g id="Layer_2-2" data-name="Layer 2" transform="translate(0 0)">
            <path id="Path_110" data-name="Path 110" d="M42.8,168.806v8.488l4.85,6.063H60.984l4.85-7.275v-7.275Z" transform="translate(-33.702 -127.58)" fill="none" stroke="#3aafa9" stroke-miterlimit="10" stroke-width="5"/>
            <rect id="Rectangle_155" data-name="Rectangle 155" width="41.226" height="41.226" rx="20.613" fill="none" stroke="#3aafa9" stroke-miterlimit="10" stroke-width="5"/>
            <path id="Path_111" data-name="Path 111" d="M71.659,74.917v7.275l-3.638,6.063H59.534l-4.85-4.85V73.7" transform="translate(-42.558 -56.729)" fill="none" stroke="#3aafa9" stroke-miterlimit="10" stroke-width="5"/>
            <line id="Line_165" data-name="Line 165" y1="9.603" transform="translate(15.193 30.628)" fill="none" stroke="#3aafa9" stroke-miterlimit="10" stroke-width="5"/>
            <line id="Line_166" data-name="Line 166" y1="9.7" transform="translate(25.463 30.313)" fill="none" stroke="#3aafa9" stroke-miterlimit="10" stroke-width="5"/>
            <line id="Line_167" data-name="Line 167" x2="7.275" transform="translate(16.975 15.763)" fill="none" stroke="#3aafa9" stroke-miterlimit="10" stroke-width="5"/>
          </g>
        </g>
      </g>
      <g id="Mask_Group_5" data-name="Mask Group 5" transform="translate(1437 1185)" clip-path="url(#clip-path)">
        <g id="Layer_2-3" data-name="Layer 2" transform="translate(0.538)">
          <g id="Layer_2-4" data-name="Layer 2">
            <rect id="Rectangle_157" data-name="Rectangle 157" width="28.577" height="28.577" rx="14.289" transform="translate(19.732 20.944)" stroke-width="4.928" stroke="#3aafa9" stroke-linecap="round" stroke-linejoin="round" fill="none"/>
            <rect id="Rectangle_158" data-name="Rectangle 158" width="50.684" height="50.684" rx="25.342" transform="translate(8.669 9.891)" stroke-width="8.736" stroke="#3aafa9" stroke-linecap="round" stroke-linejoin="round" fill="none"/>
            <path id="Path_112" data-name="Path 112" d="M46.462,12.226l-14.973.586L34.216.577,42.377,0Z" transform="translate(-5.385)" fill="#3aafa9"/>
            <path id="Path_113" data-name="Path 113" d="M62.144,19.939,48.608,13.527l8.063-9.578L64.177,7.2Z" transform="translate(-8.313 -0.675)" fill="#3aafa9"/>
            <path id="Path_114" data-name="Path 114" d="M67.713,35.289,63.286,20.98l12.51-.538,2.678,7.74Z" transform="translate(-10.823 -3.496)" fill="#3aafa9"/>
            <path id="Path_115" data-name="Path 115" d="M65.6,51.637l2.922-14.689,11.259,5.493-1.339,8.073Z" transform="translate(-11.218 -6.319)" fill="#3aafa9"/>
            <path id="Path_116" data-name="Path 116" d="M54.68,65.491,65.723,55.375l5.825,11.093-5.854,5.717Z" transform="translate(-9.351 -9.47)" fill="#3aafa9"/>
            <path id="Path_117" data-name="Path 117" d="M37.09,69.189,52.033,68.2l-2.385,12.3L41.5,81.3Z" transform="translate(-6.343 -11.664)" fill="#3aafa9"/>
            <path id="Path_118" data-name="Path 118" d="M18.755,62.413l13.057,7.35-8.728,8.991-7.252-3.782Z" transform="translate(-2.708 -10.674)" fill="#3aafa9"/>
            <path id="Path_119" data-name="Path 119" d="M9.06,45.331l7.291,13.086L4.212,61.525,0,54.508Z" transform="translate(0 -7.752)" fill="#3aafa9"/>
            <path id="Path_120" data-name="Path 120" d="M15.632,27.407,11.039,41.666.483,34.913l2.258-7.868Z" transform="translate(-0.083 -4.625)" fill="#3aafa9"/>
            <path id="Path_121" data-name="Path 121" d="M28.713,15.159,16.3,23.545,12.167,11.719,18.8,6.92Z" transform="translate(-2.081 -1.183)" fill="#3aafa9"/>
          </g>
        </g>
      </g>
      <g id="Mask_Group_6" data-name="Mask Group 6" transform="translate(355 530)" clip-path="url(#clip-path-2)">
        <g id="Layer_2-5" data-name="Layer 2" transform="translate(0 28.442)">
          <g id="Layer_2-6" data-name="Layer 2">
            <rect id="Rectangle_160" data-name="Rectangle 160" width="8.923" height="6.692" transform="translate(0 25.654)" fill="#3aafa9"/>
            <rect id="Rectangle_161" data-name="Rectangle 161" width="8.923" height="6.692" transform="translate(78.077 12.269)" fill="#3aafa9"/>
            <line id="Line_168" data-name="Line 168" x2="35.692" transform="translate(20.077 30.115)" fill="none" stroke="#3aafa9" stroke-miterlimit="10" stroke-width="6.692"/>
            <line id="Line_169" data-name="Line 169" x2="35.692" transform="translate(17.846)" fill="none" stroke="#3aafa9" stroke-miterlimit="10" stroke-width="6.692"/>
            <line id="Line_170" data-name="Line 170" x2="29" transform="translate(40.154 15.682)" fill="none" stroke="#3aafa9" stroke-miterlimit="10" stroke-width="6.224"/>
          </g>
        </g>
      </g>
      <g id="Mask_Group_12" data-name="Mask Group 12" transform="translate(0 957)" clip-path="url(#clip-path-3)">
        <g id="Layer_2-7" data-name="Layer 2" transform="translate(0 20.84)">
          <g id="Layer_2-8" data-name="Layer 2" transform="translate(0 0)">
            <rect id="Rectangle_170" data-name="Rectangle 170" width="6.538" height="4.904" transform="translate(0 18.797)" fill="#3aafa9"/>
            <rect id="Rectangle_171" data-name="Rectangle 171" width="6.538" height="4.904" transform="translate(57.208 8.99)" fill="#3aafa9"/>
            <line id="Line_174" data-name="Line 174" x2="26.152" transform="translate(14.711 22.066)" fill="none" stroke="#3aafa9" stroke-miterlimit="10" stroke-width="6.692"/>
            <line id="Line_175" data-name="Line 175" x2="26.152" transform="translate(13.076)" fill="none" stroke="#3aafa9" stroke-miterlimit="10" stroke-width="6.692"/>
            <line id="Line_176" data-name="Line 176" x2="21.249" transform="translate(29.421 11.491)" fill="none" stroke="#3aafa9" stroke-miterlimit="10" stroke-width="6.224"/>
          </g>
        </g>
      </g>
      <g id="Mask_Group_14" data-name="Mask Group 14" transform="translate(1437 1655)" clip-path="url(#clip-path-3)">
        <g id="Layer_2-9" data-name="Layer 2" transform="translate(0 20.84)">
          <g id="Layer_2-10" data-name="Layer 2" transform="translate(0 0)">
            <rect id="Rectangle_176" data-name="Rectangle 176" width="6.538" height="4.904" transform="translate(0 18.797)" fill="#3aafa9"/>
            <rect id="Rectangle_177" data-name="Rectangle 177" width="6.538" height="4.904" transform="translate(57.208 8.99)" fill="#3aafa9"/>
            <line id="Line_180" data-name="Line 180" x2="26.152" transform="translate(14.711 22.066)" fill="none" stroke="#3aafa9" stroke-miterlimit="10" stroke-width="6.692"/>
            <line id="Line_181" data-name="Line 181" x2="26.152" transform="translate(13.076)" fill="none" stroke="#3aafa9" stroke-miterlimit="10" stroke-width="6.692"/>
            <line id="Line_182" data-name="Line 182" x2="21.249" transform="translate(29.421 11.491)" fill="none" stroke="#3aafa9" stroke-miterlimit="10" stroke-width="6.224"/>
          </g>
        </g>
      </g>
      <g id="Mask_Group_13" data-name="Mask Group 13" transform="translate(1675 909)" clip-path="url(#clip-path-3)">
        <g id="Layer_2-11" data-name="Layer 2" transform="translate(0 20.84)">
          <g id="Layer_2-12" data-name="Layer 2" transform="translate(0 0)">
            <rect id="Rectangle_173" data-name="Rectangle 173" width="6.538" height="4.904" transform="translate(0 18.797)" fill="#3aafa9"/>
            <rect id="Rectangle_174" data-name="Rectangle 174" width="6.538" height="4.904" transform="translate(57.208 8.99)" fill="#3aafa9"/>
            <line id="Line_177" data-name="Line 177" x2="26.152" transform="translate(14.711 22.066)" fill="none" stroke="#3aafa9" stroke-miterlimit="10" stroke-width="6.692"/>
            <line id="Line_178" data-name="Line 178" x2="26.152" transform="translate(13.076)" fill="none" stroke="#3aafa9" stroke-miterlimit="10" stroke-width="6.692"/>
            <line id="Line_179" data-name="Line 179" x2="21.249" transform="translate(29.421 11.491)" fill="none" stroke="#3aafa9" stroke-miterlimit="10" stroke-width="6.224"/>
          </g>
        </g>
      </g>
      <g id="Mask_Group_11" data-name="Mask Group 11" transform="translate(1538 425)" clip-path="url(#clip-path-6)">
        <g id="Layer_2-13" data-name="Layer 2" transform="translate(0 34.479)">
          <g id="Layer_2-14" data-name="Layer 2" transform="translate(0 0)">
            <rect id="Rectangle_167" data-name="Rectangle 167" width="10.817" height="8.113" transform="translate(0 31.098)" fill="#3aafa9"/>
            <rect id="Rectangle_168" data-name="Rectangle 168" width="10.817" height="8.113" transform="translate(94.647 14.873)" fill="#3aafa9"/>
            <line id="Line_171" data-name="Line 171" x2="43.267" transform="translate(24.338 36.507)" fill="none" stroke="#3aafa9" stroke-miterlimit="10" stroke-width="6.692"/>
            <line id="Line_172" data-name="Line 172" x2="43.267" transform="translate(21.634)" fill="none" stroke="#3aafa9" stroke-miterlimit="10" stroke-width="6.692"/>
            <line id="Line_173" data-name="Line 173" x2="35.155" transform="translate(48.676 19.011)" fill="none" stroke="#3aafa9" stroke-miterlimit="10" stroke-width="6.224"/>
          </g>
        </g>
      </g>
      <g id="Mask_Group_7" data-name="Mask Group 7" transform="translate(269)" clip-path="url(#clip-path-7)">
        <g id="Layer_2-15" data-name="Layer 2" transform="translate(3.875 3.875)">
          <g id="Layer_2-16" data-name="Layer 2">
            <rect id="Rectangle_163" data-name="Rectangle 163" width="23.25" height="23.25" rx="11.625" fill="none" stroke="#3aafa9" stroke-linecap="round" stroke-linejoin="round" stroke-width="5"/>
          </g>
        </g>
      </g>
      <g id="Mask_Group_8" data-name="Mask Group 8" transform="translate(326 55)" clip-path="url(#clip-path-8)">
        <g id="Layer_2-17" data-name="Layer 2" transform="translate(3.688 2.766)">
          <g id="Layer_2-18" data-name="Layer 2">
            <path id="Path_122" data-name="Path 122" d="M5.531,29.5H27.656L16.594,5.531,5.531,29.5" transform="translate(-5.531 -5.531)" fill="none" stroke="#3aafa9" stroke-linecap="round" stroke-linejoin="round" stroke-width="5"/>
          </g>
        </g>
      </g>
      <g id="Mask_Group_9" data-name="Mask Group 9" transform="translate(91 1579)" clip-path="url(#clip-path-9)">
        <g id="Layer_2-19" data-name="Layer 2" transform="translate(5.881 7.481)">
          <g id="Layer_2-20" data-name="Layer 2">
            <path id="Path_123" data-name="Path 123" d="M26.507,6.186l6.364,12.906,14.255,2.082L36.816,31.206l2.419,14.2L26.507,38.7,13.759,45.4l2.439-14.2L5.888,21.174l14.235-2.082Z" transform="translate(-5.888 -6.186)" fill="none" stroke="#3aafa9" stroke-miterlimit="10" stroke-width="5.472"/>
          </g>
        </g>
      </g>
      <g id="Mask_Group_10" data-name="Mask Group 10" transform="translate(1622 142)" clip-path="url(#clip-path-9)">
        <g id="Layer_2-21" data-name="Layer 2" transform="translate(5.881 7.481)">
          <g id="Layer_2-22" data-name="Layer 2">
            <path id="Path_124" data-name="Path 124" d="M26.507,6.186l6.364,12.906,14.255,2.082L36.816,31.206l2.419,14.2L26.507,38.7,13.759,45.4l2.439-14.2L5.888,21.174l14.235-2.082Z" transform="translate(-5.888 -6.186)" fill="none" stroke="#3aafa9" stroke-miterlimit="10" stroke-width="5.472"/>
          </g>
        </g>
      </g>
    </g>
    <path id="Path_127" data-name="Path 127" d="M0,0H1920V3791H0Z" transform="translate(0 6295)" fill="#9cf"/>
  </g>
</svg>
