<svg xmlns="http://www.w3.org/2000/svg" xmlns:xlink="http://www.w3.org/1999/xlink" viewBox="0 0 121.39 121.39"><defs><style>.cls-1{fill:none;}.cls-2{clip-path:url(#clip-path);}.cls-3{fill:#17252a;}.cls-4{fill:#3aafa9;}</style><clipPath id="clip-path"><rect class="cls-1" x="12.42" y="12.42" width="96.54" height="96.54" rx="48.27" transform="translate(-24.93 54.66) rotate(-40.97)"/></clipPath></defs><title>Cog</title><g id="Layer_2" data-name="Layer 2"><g id="Layer_1-2" data-name="Layer 1"><g class="cls-2"><rect class="cls-3" x="50.21" y="0.59" width="20.97" height="120.21" transform="translate(-24.93 54.66) rotate(-40.97)"/><rect class="cls-3" x="50.21" y="0.59" width="20.97" height="120.21" transform="translate(66.73 -24.93) rotate(49.03)"/><rect class="cls-3" x="50.21" y="0.59" width="20.97" height="120.21" transform="matrix(-0.07, 1, -1, -0.07, 125.51, 4.42)"/><rect class="cls-3" x="50.21" y="0.59" width="20.97" height="120.21" transform="translate(116.97 125.51) rotate(-175.97)"/><rect class="cls-3" x="22.83" y="22.92" width="75.48" height="75.48" rx="37.74" transform="translate(-24.94 54.57) rotate(-40.97)"/><rect class="cls-4" x="41.42" y="41.51" width="38.3" height="38.3" rx="19.15" transform="translate(-24.94 54.57) rotate(-40.97)"/></g><path class="cls-4" d="M60.69,33.63v2.42a24.63,24.63,0,1,1-16.14,6,24.63,24.63,0,0,1,16.14-6V33.63m0,0A26.91,26.91,0,0,0,43,40.26h0a27,27,0,0,0-2.69,38.16h0a27.05,27.05,0,0,0,38.15,2.69h0A27,27,0,0,0,81.12,43h0a27,27,0,0,0-20.43-9.32Z"/></g></g></svg>