<svg xmlns="http://www.w3.org/2000/svg" viewBox="0 0 518.5 531.95"><defs><style>.cls-1,.cls-10,.cls-11,.cls-12,.cls-13,.cls-14,.cls-15,.cls-16,.cls-17,.cls-18,.cls-19,.cls-2,.cls-20,.cls-21,.cls-24,.cls-25,.cls-26,.cls-27,.cls-28,.cls-4,.cls-5,.cls-6,.cls-7,.cls-8,.cls-9{fill:none;}.cls-1,.cls-10,.cls-11,.cls-12,.cls-13,.cls-14,.cls-15,.cls-16,.cls-17,.cls-18,.cls-19,.cls-2,.cls-20,.cls-21,.cls-22,.cls-23,.cls-24,.cls-25,.cls-26,.cls-27,.cls-28,.cls-4,.cls-5,.cls-6,.cls-7,.cls-8,.cls-9{stroke:#3aafa9;}.cls-1,.cls-11,.cls-12,.cls-13,.cls-14,.cls-15,.cls-16,.cls-17,.cls-18,.cls-19,.cls-2,.cls-21,.cls-22,.cls-23,.cls-24,.cls-25,.cls-26,.cls-27,.cls-28,.cls-4,.cls-5,.cls-7{stroke-miterlimit:10;}.cls-1,.cls-23,.cls-6,.cls-7{stroke-width:3px;}.cls-2{stroke-width:4px;}.cls-22,.cls-23,.cls-3{fill:#3aafa9;}.cls-4{stroke-width:2.79px;}.cls-20,.cls-5{stroke-width:2px;}.cls-10,.cls-20,.cls-6,.cls-8,.cls-9{stroke-linecap:round;stroke-linejoin:round;}.cls-7{stroke-linecap:square;}.cls-8{stroke-width:5.32px;}.cls-9{stroke-width:4.18px;}.cls-10{stroke-width:7.41px;}.cls-11{stroke-width:3.86px;}.cls-12{stroke-width:3.75px;}.cls-13{stroke-width:4.5px;}.cls-14{stroke-width:3.86px;}.cls-15{stroke-width:5.14px;}.cls-16{stroke-width:1.78px;}.cls-17{stroke-width:4.31px;}.cls-18{stroke-width:2.76px;}.cls-19{stroke-width:2.27px;}.cls-21{stroke-width:2.75px;}.cls-24{stroke-width:2.79px;}.cls-25{stroke-width:4.07px;}.cls-26{stroke-width:3.94px;}.cls-27{stroke-width:3.64px;}.cls-28{stroke-width:3.05px;}</style></defs><title>Asset 1</title><g id="Layer_2" data-name="Layer 2"><g id="Layer_2-2" data-name="Layer 2"><rect class="cls-1" x="216" y="221.02" width="88" height="51" rx="1.78"/><rect class="cls-1" x="206.5" y="210.93" width="107.5" height="71.1" rx="2.44"/><line class="cls-2" x1="243.5" y1="230.52" x2="226" y2="248.02"/><line class="cls-2" x1="231.5" y1="229.52" x2="225" y2="236.02"/><path class="cls-1" d="M247.78,282v10H240a3,3,0,0,0-3,3v5h47v-5a3,3,0,0,0-3-3h-8V282Z"/><rect class="cls-1" x="211.5" y="300.52" width="97" height="20"/><rect class="cls-1" x="329.5" y="314.52" width="7" height="7"/><rect class="cls-1" x="284.5" y="191.52" width="7" height="7"/><line class="cls-1" x1="320.5" y1="296.52" x2="338.5" y2="296.52"/><line class="cls-1" x1="333.5" y1="290.77" x2="343.5" y2="290.77"/><rect class="cls-3" x="347.5" y="289.27" width="3" height="3"/><rect class="cls-3" x="162" y="316.02" width="4" height="3"/><rect class="cls-3" x="197" y="310.02" width="4" height="3"/><line class="cls-1" x1="327.5" y1="283.52" x2="335.5" y2="283.52"/><line class="cls-1" x1="224.5" y1="306.52" x2="233.5" y2="306.52"/><rect class="cls-1" x="291.5" y="305.52" width="8" height="8" rx="4"/><line class="cls-1" x1="171" y1="318.02" x2="187" y2="318.02"/><line class="cls-1" x1="170" y1="304.52" x2="186" y2="304.52"/><line class="cls-4" x1="180" y1="311.55" x2="193" y2="311.55"/><line class="cls-1" x1="289.44" y1="400.02" x2="231.92" y2="400.02"/><path class="cls-1" d="M190.67,400h-2.42a2.5,2.5,0,0,1-2.5-2.5v-57a2.51,2.51,0,0,1,2.5-2.51h145a2.51,2.51,0,0,1,2.5,2.51v57a2.5,2.5,0,0,1-2.5,2.5h-2"/><line class="cls-1" x1="194.42" y1="346.02" x2="326.42" y2="346.02"/><rect class="cls-3" x="193.92" y="353.02" width="10" height="4"/><rect class="cls-3" x="207.92" y="353.02" width="10" height="4"/><rect class="cls-3" x="221.92" y="353.02" width="10" height="4"/><rect class="cls-3" x="235.92" y="353.02" width="10" height="4"/><rect class="cls-3" x="248.92" y="353.02" width="10" height="4"/><rect class="cls-3" x="262.92" y="353.02" width="10" height="4"/><rect class="cls-3" x="276.92" y="353.02" width="10" height="4"/><rect class="cls-3" x="290.92" y="353.02" width="10" height="4"/><rect class="cls-3" x="303.92" y="353.02" width="10" height="4"/><rect class="cls-3" x="316.92" y="353.02" width="10" height="4"/><rect class="cls-3" x="193.92" y="362.02" width="10" height="4"/><rect class="cls-3" x="207.92" y="362.02" width="10" height="4"/><rect class="cls-3" x="221.92" y="362.02" width="10" height="4"/><rect class="cls-3" x="235.92" y="362.02" width="10" height="4"/><rect class="cls-3" x="248.92" y="362.02" width="10" height="4"/><rect class="cls-3" x="262.92" y="362.02" width="10" height="4"/><rect class="cls-3" x="276.92" y="362.02" width="10" height="4"/><rect class="cls-3" x="290.92" y="362.02" width="10" height="4"/><rect class="cls-3" x="303.92" y="362.02" width="10" height="4"/><rect class="cls-3" x="316.92" y="362.02" width="10" height="4"/><path class="cls-5" d="M194.5,400v-22.5a3,3,0,1,1,6,0v-6c0-4.37,7-4.37,7,0,0-4.37,7-4.37,7,0v4c0-3,6-3,6,0v13c0-3.63,6-3.63,6,0v19a16.17,16.17,0,0,1-8,9v5"/><path class="cls-5" d="M199.5,420.52v-5a6.86,6.86,0,0,1-5-6V400"/><line class="cls-5" x1="200.5" y1="376.8" x2="200.5" y2="394.02"/><line class="cls-5" x1="207.41" y1="370.88" x2="207.41" y2="394.02"/><line class="cls-5" x1="214.5" y1="374.51" x2="214.5" y2="394.02"/><line class="cls-5" x1="220.5" y1="387.69" x2="220.5" y2="400.02"/><path class="cls-5" d="M320.5,420.52v-5a6.86,6.86,0,0,0,5-6v-32a3,3,0,1,0-6,0v-6c0-4.37-7-4.37-7,0,0-4.37-7-4.37-7,0v4c0-3-6-3-6,0v13c0-3.63-6-3.63-6,0v19a16.17,16.17,0,0,0,8,9v5"/><line class="cls-5" x1="319.5" y1="376.8" x2="319.5" y2="394.02"/><line class="cls-5" x1="312.59" y1="370.88" x2="312.59" y2="394.02"/><line class="cls-5" x1="305.5" y1="374.51" x2="305.5" y2="394.02"/><line class="cls-5" x1="299.5" y1="387.69" x2="299.5" y2="400.02"/><line class="cls-1" x1="213" y1="432.02" x2="231" y2="432.02"/><line class="cls-1" x1="229" y1="443.52" x2="247" y2="443.52"/><line class="cls-1" x1="246" y1="437.52" x2="264" y2="437.52"/><line class="cls-1" x1="287.5" y1="427.52" x2="287.5" y2="435.52"/><line class="cls-1" x1="283.5" y1="431.52" x2="291.5" y2="431.52"/><line class="cls-1" x1="118.33" y1="474.7" x2="112.67" y2="480.35"/><line class="cls-1" x1="112.67" y1="474.7" x2="118.33" y2="480.35"/><rect class="cls-1" x="350.75" y="293.52" width="41" height="58" rx="19.67"/><rect class="cls-1" x="368.25" y="299.52" width="6" height="15" rx="3"/><line class="cls-1" x1="371.5" y1="299.52" x2="371.5" y2="293.52"/><polyline class="cls-6" points="358.5 278.52 370.5 278.52 364.5 265.52 358.5 278.52"/><rect class="cls-6" x="382.5" y="257.52" width="9" height="9" rx="4.5"/><polyline class="cls-6" points="416.97 287.52 441.5 287.52 441.5 257.52 404.5 257.52 404.5 287.52 409.5 287.52"/><polyline class="cls-6" points="409.5 287.52 409.5 294.52 416.78 287.52"/><polygon class="cls-6" points="335.5 248.52 347.5 248.52 347.5 253.52 343.5 257.52 337.5 257.52 334 254.02 334 248.52 335.5 248.52"/><rect class="cls-6" x="328.5" y="223.52" width="25" height="25" rx="12.5"/><line class="cls-7" x1="309.5" y1="188.52" x2="309.5" y2="197.52"/><line class="cls-7" x1="320.5" y1="188.52" x2="320.5" y2="197.52"/><line class="cls-7" x1="330.5" y1="188.52" x2="330.5" y2="197.52"/><line class="cls-7" x1="340.5" y1="188.52" x2="340.5" y2="197.52"/><line class="cls-7" x1="309.5" y1="123.52" x2="309.5" y2="132.52"/><line class="cls-7" x1="320.5" y1="123.52" x2="320.5" y2="132.52"/><line class="cls-7" x1="330.5" y1="123.52" x2="330.5" y2="132.52"/><line class="cls-7" x1="340.5" y1="123.52" x2="340.5" y2="132.52"/><rect class="cls-6" x="302.5" y="138.19" width="43" height="43" rx="11.28"/><line class="cls-7" x1="353.5" y1="175.19" x2="363.5" y2="175.19"/><line class="cls-7" x1="353.5" y1="165.19" x2="363.5" y2="165.19"/><line class="cls-7" x1="353.5" y1="154.19" x2="363.5" y2="154.19"/><line class="cls-7" x1="353.5" y1="144.19" x2="363.5" y2="144.19"/><line class="cls-7" x1="286.5" y1="175.19" x2="296.5" y2="175.19"/><line class="cls-7" x1="286.5" y1="165.19" x2="296.5" y2="165.19"/><line class="cls-7" x1="286.5" y1="154.19" x2="296.5" y2="154.19"/><line class="cls-7" x1="286.5" y1="144.19" x2="296.5" y2="144.19"/><polyline class="cls-1" points="313.5 165.52 313.5 171.52 320.5 171.52"/><polyline class="cls-1" points="329.5 148.52 336.5 148.52 336.5 155.52"/><rect class="cls-6" x="157.31" y="253.21" width="21" height="21" rx="10.5"/><rect class="cls-8" x="149.19" y="245.09" width="37.25" height="37.25" rx="18.62"/><polygon class="cls-3" points="173 246.81 162 247.23 164 238.24 170 237.82 173 246.81"/><polygon class="cls-3" points="182.38 251.97 172.43 247.26 178.36 240.22 183.87 242.62 182.38 251.97"/><polygon class="cls-3" points="184.62 261.18 181.37 250.67 190.56 250.28 192.53 255.96 184.62 261.18"/><polygon class="cls-3" points="182.78 271.13 184.92 260.33 193.2 264.36 192.21 270.3 182.78 271.13"/><polygon class="cls-3" points="176.12 278.99 184.24 271.56 188.53 279.71 184.22 283.91 176.12 278.99"/><polygon class="cls-3" points="165.41 280.37 176.39 279.65 174.64 288.69 168.65 289.28 165.41 280.37"/><polygon class="cls-3" points="154.61 275.85 164.2 281.25 157.79 287.85 152.46 285.07 154.61 275.85"/><polygon class="cls-3" points="149.47 265.44 154.83 275.05 145.91 277.34 142.81 272.18 149.47 265.44"/><polygon class="cls-3" points="154.24 254.56 150.87 265.04 143.11 260.08 144.77 254.29 154.24 254.56"/><polygon class="cls-3" points="162.39 248.09 153.26 254.25 150.23 245.56 155.1 242.03 162.39 248.09"/><rect class="cls-9" x="413" y="96.46" width="29.24" height="29.24" rx="14.62"/><rect class="cls-10" x="401.69" y="85.14" width="51.86" height="51.86" rx="25.93"/><polygon class="cls-3" points="434.84 87.54 419.53 88.13 422.31 75.62 430.66 75.02 434.84 87.54"/><polygon class="cls-3" points="447.89 94.73 434.04 88.18 442.3 78.37 449.98 81.71 447.89 94.73"/><polygon class="cls-3" points="451.02 107.56 446.49 92.92 459.3 92.37 462.03 100.28 451.02 107.56"/><polygon class="cls-3" points="448.45 121.4 451.44 106.36 462.96 111.98 461.59 120.25 448.45 121.4"/><polygon class="cls-3" points="439.19 132.34 450.5 122 456.46 133.34 450.46 139.19 439.19 132.34"/><polygon class="cls-3" points="424.27 133.88 439.57 132.88 437.12 145.46 428.79 146.28 424.27 133.88"/><polygon class="cls-3" points="409.24 127.97 422.59 135.49 413.66 144.69 406.24 140.81 409.24 127.97"/><polygon class="cls-3" points="402.08 113.48 409.54 126.86 397.12 130.05 392.81 122.87 402.08 113.48"/><polygon class="cls-3" points="408.72 98.33 404.02 112.92 393.23 106.02 395.53 97.97 408.72 98.33"/><polygon class="cls-3" points="420.07 89.32 407.36 97.9 403.13 85.8 409.92 80.89 420.07 89.32"/><path class="cls-1" d="M248.16,196.4a8,8,0,0,1-1.66-4.88"/><path class="cls-1" d="M258.12,198.66a8,8,0,0,1-3.62.86h0a7.81,7.81,0,0,1-2.48-.39"/><path class="cls-1" d="M262.46,190.74a6.68,6.68,0,0,1,0,.78h0a8,8,0,0,1-1.28,4.35"/><path class="cls-1" d="M256.38,183.75a7.94,7.94,0,0,1,4.48,2.92"/><path class="cls-1" d="M248.1,186.72a8,8,0,0,1,3.92-2.8"/><path class="cls-11" d="M271.63,526a10.27,10.27,0,0,1-2.13-6.27"/><path class="cls-11" d="M284.44,528.91a10.26,10.26,0,0,1-4.66,1.11h0a10.24,10.24,0,0,1-3.19-.5"/><path class="cls-11" d="M290,518.73a8.44,8.44,0,0,1,.05,1h0a10.19,10.19,0,0,1-1.65,5.59"/><path class="cls-11" d="M282.2,509.75a10.26,10.26,0,0,1,5.76,3.76"/><path class="cls-11" d="M271.56,513.57a10.32,10.32,0,0,1,5-3.61"/><path class="cls-11" d="M31.63,150a10.27,10.27,0,0,1-2.13-6.27"/><path class="cls-11" d="M44.44,152.91A10.26,10.26,0,0,1,39.78,154h0a10.24,10.24,0,0,1-3.19-.5"/><path class="cls-11" d="M50,142.73a8.44,8.44,0,0,1,.05,1h0a10.19,10.19,0,0,1-1.65,5.59"/><path class="cls-11" d="M42.2,133.75A10.26,10.26,0,0,1,48,137.51"/><path class="cls-11" d="M31.56,137.57a10.32,10.32,0,0,1,5-3.61"/><line class="cls-12" x1="221" y1="190.02" x2="216" y2="195.02"/><line class="cls-12" x1="221" y1="195.02" x2="216" y2="190.02"/><line class="cls-13" x1="267" y1="156.02" x2="261" y2="162.02"/><line class="cls-13" x1="267" y1="162.02" x2="261" y2="156.02"/><line class="cls-1" x1="120" y1="53.02" x2="112" y2="61.02"/><line class="cls-1" x1="120" y1="61.02" x2="112" y2="53.02"/><line class="cls-12" x1="205" y1="173.02" x2="224" y2="173.02"/><line class="cls-12" x1="213" y1="165.02" x2="232" y2="165.02"/><line class="cls-12" x1="198" y1="157.02" x2="217" y2="157.02"/><line class="cls-12" x1="215" y1="147.02" x2="228" y2="147.02"/><line class="cls-12" x1="235" y1="147.02" x2="239" y2="147.02"/><rect class="cls-14" x="274.5" y="123.52" width="6" height="6" rx="3"/><rect class="cls-15" x="210.5" y="10.52" width="8" height="8" rx="4"/><rect class="cls-14" x="132" y="166.02" width="6" height="6" rx="3"/><rect class="cls-5" x="478" y="132.02" width="9" height="9" rx="4.5"/><polygon class="cls-14" points="255.42 129.15 247.5 129.1 239.58 129.05 243.58 122.21 247.59 115.38 251.5 122.26 255.42 129.15"/><rect class="cls-5" x="96" y="290.97" width="10" height="15" rx="5"/><rect class="cls-5" x="111" y="290.97" width="10" height="15" rx="5"/><rect class="cls-5" x="74.65" y="291.41" width="10" height="15" rx="5" transform="translate(159.3 597.82) rotate(-180)"/><rect class="cls-5" x="52.65" y="291.41" width="10" height="15" rx="5" transform="translate(115.3 597.82) rotate(-180)"/><rect class="cls-5" x="38.65" y="291.41" width="10" height="15" rx="5" transform="translate(87.3 597.82) rotate(-180)"/><line class="cls-5" x1="127" y1="307.47" x2="127" y2="289.47"/><line class="cls-5" x1="134" y1="307.47" x2="134" y2="289.47"/><line class="cls-5" x1="68.65" y1="289.91" x2="68.65" y2="307.91"/><line class="cls-5" x1="33.65" y1="289.91" x2="33.65" y2="307.91"/><line class="cls-5" x1="25" y1="290.02" x2="25" y2="308.02"/><line class="cls-5" x1="90" y1="307.47" x2="90" y2="289.47"/><rect class="cls-5" x="334" y="87.97" width="10" height="15" rx="5"/><rect class="cls-5" x="349" y="87.97" width="10" height="15" rx="5"/><rect class="cls-5" x="312.65" y="88.41" width="10" height="15" rx="5" transform="translate(635.3 191.82) rotate(-180)"/><rect class="cls-5" x="276" y="88.52" width="10" height="15" rx="5"/><rect class="cls-5" x="263" y="89.02" width="10" height="15" rx="5"/><line class="cls-5" x1="365" y1="104.47" x2="365" y2="86.47"/><line class="cls-5" x1="306.65" y1="86.91" x2="306.65" y2="104.91"/><line class="cls-5" x1="291" y1="105.02" x2="291" y2="87.02"/><line class="cls-5" x1="299.65" y1="104.91" x2="299.65" y2="86.91"/><line class="cls-5" x1="328" y1="104.47" x2="328" y2="86.47"/><rect class="cls-16" x="446.55" y="323.81" width="8.91" height="13.37" rx="4.46"/><rect class="cls-16" x="466.16" y="323.81" width="8.91" height="13.37" rx="4.46"/><rect class="cls-16" x="478.63" y="323.81" width="8.91" height="13.37" rx="4.46"/><line class="cls-16" x1="434.96" y1="338.52" x2="434.96" y2="322.47"/><line class="cls-16" x1="441.2" y1="338.52" x2="441.2" y2="322.47"/><line class="cls-16" x1="460.81" y1="338.52" x2="460.81" y2="322.47"/><line class="cls-16" x1="492" y1="338.52" x2="492" y2="322.47"/><rect class="cls-5" x="404" y="165.97" width="10" height="15" rx="5"/><rect class="cls-5" x="419" y="165.97" width="10" height="15" rx="5"/><rect class="cls-5" x="448" y="165.97" width="10" height="15" rx="5"/><line class="cls-5" x1="435" y1="182.47" x2="435" y2="164.47"/><line class="cls-5" x1="442" y1="182.47" x2="442" y2="164.47"/><line class="cls-5" x1="398" y1="182.47" x2="398" y2="164.47"/><rect class="cls-1" x="372" y="178.02" width="9" height="9" transform="translate(239.34 -212.77) rotate(45)"/><rect class="cls-1" x="123" y="262.02" width="9" height="9" transform="translate(225.8 -12.09) rotate(45)"/><path class="cls-1" d="M134.5,192.52h46c4.5,0,4.5,8,0,8h-26a32.27,32.27,0,0,0,13,7h11c3.64-1.32,6.61-2.89,8-5,4.72-3.93,9.72,2.07,5,6-5.56,5.2-11.47,9.73-19,11h-11a30.13,30.13,0,0,1-14-9h-13"/><polygon class="cls-1" points="155.56 170.52 155.56 177.52 159.56 182.52 170.56 182.52 174.56 176.52 174.56 170.52 155.56 170.52"/><rect class="cls-1" x="148.06" y="136.52" width="34" height="34" rx="17"/><polyline class="cls-1" points="172.06 151.52 172.06 157.52 169.06 162.52 162.06 162.52 158.06 158.52 158.06 150.52"/><line class="cls-1" x1="160.59" y1="169.7" x2="160.59" y2="161.78"/><line class="cls-1" x1="169.06" y1="169.52" x2="169.06" y2="161.52"/><line class="cls-1" x1="162.06" y1="149.52" x2="168.06" y2="149.52"/><polygon class="cls-17" points="450.84 401.9 450.84 411.96 456.59 419.14 472.4 419.14 478.15 410.52 478.15 401.9 450.84 401.9"/><rect class="cls-17" x="440.06" y="353.02" width="48.87" height="48.87" rx="24.44"/><polyline class="cls-17" points="474.56 374.58 474.56 383.21 470.25 390.4 460.19 390.4 454.44 384.65 454.44 373.15"/><line class="cls-17" x1="458.08" y1="400.72" x2="458.08" y2="389.33"/><line class="cls-17" x1="470.25" y1="400.46" x2="470.25" y2="388.96"/><line class="cls-17" x1="460.19" y1="371.71" x2="468.81" y2="371.71"/><rect class="cls-1" x="458" y="214.02" width="59" height="93"/><rect class="cls-1" x="466.5" y="225.52" width="42" height="64"/><rect class="cls-3" x="483.5" y="294.52" width="9" height="6"/><rect class="cls-3" x="482" y="218.02" width="13" height="4"/><rect class="cls-3" x="486" y="247.02" width="4" height="24" transform="translate(326.09 -269.2) rotate(45)"/><rect class="cls-3" x="491" y="259.37" width="4" height="11.31" transform="translate(331.8 -270.98) rotate(45)"/><line class="cls-1" x1="488" y1="178.02" x2="504" y2="178.02"/><line class="cls-1" x1="475.5" y1="184.52" x2="491.5" y2="184.52"/><line class="cls-1" x1="485.5" y1="191.52" x2="510.5" y2="191.52"/><polygon class="cls-18" points="409.6 338.64 412.81 345.15 420 346.2 414.8 351.27 416.03 358.42 409.6 355.05 403.17 358.42 404.4 351.27 399.2 346.2 406.39 345.15 409.6 338.64"/><line class="cls-12" x1="361" y1="366.02" x2="355" y2="372.02"/><line class="cls-12" x1="361" y1="372.02" x2="355" y2="366.02"/><polygon class="cls-1" points="400 393.02 402 389.02 399 384.02 403 380.02 407.5 383.52 411.5 382.52 412.5 377.52 418.5 378.52 418.5 382.52 422.5 385.52 426.5 384.52 429.5 388.52 426.5 391.52 426.5 396.52 430.5 399.52 428.5 403.52 423.5 403.52 420.5 406.52 420.5 410.52 416.5 412.52 413.5 408.52 408.5 408.52 405.5 411.52 401.5 408.52 402.5 403.52 400.5 400.52 395.5 399.52 395.5 393.52 400 393.02"/><polygon class="cls-19" points="383.91 423.76 385.42 420.73 383.15 416.94 386.18 413.92 389.59 416.57 392.61 415.81 393.37 412.02 397.91 412.78 397.91 415.81 400.94 418.08 403.97 417.32 406.24 420.35 403.97 422.62 403.97 426.41 407 428.68 405.49 431.71 401.7 431.71 399.43 433.98 399.43 437.01 396.4 438.52 394.13 435.5 390.34 435.5 388.07 437.77 385.04 435.5 385.8 431.71 384.29 429.44 380.5 428.68 380.5 424.14 383.91 423.76"/><polygon class="cls-3" points="363.42 395.53 365.16 392.05 362.55 387.69 366.04 384.2 369.96 387.25 373.44 386.38 374.31 382.02 379.54 382.89 379.54 386.38 383.03 389 386.51 388.12 389.13 391.61 386.51 394.22 386.51 398.58 390 401.19 388.26 404.68 383.9 404.68 381.29 407.3 381.29 410.78 377.8 412.52 375.19 409.04 370.83 409.04 368.21 411.65 364.73 409.04 365.6 404.68 363.86 402.07 359.5 401.19 359.5 395.97 363.42 395.53"/><polygon class="cls-3" points="373.02 230.1 373.35 226.73 369.87 224.01 371.62 220.1 375.75 221.36 378.31 219.57 377.66 215.76 382.17 214.84 383.26 217.67 386.9 218.71 389.45 216.92 392.66 218.94 391.35 221.87 392.7 225.41 396.34 226.45 396.01 229.82 392.48 231.17 391.17 234.1 392.25 236.93 389.96 239.43 386.76 237.41 383.22 238.76 381.91 241.7 378.27 240.66 377.63 236.85 375.4 235.27 371.59 235.92 369.97 231.67 373.02 230.1"/><path class="cls-6" d="M399,227h36c4.29-9,.58-13.4-8-15,5.28-6.51-5.22-15-10.5-8.5.77-5.36-6.23-6.36-7-1-.89-5.78-13.89-3.78-13,2-4.25-4.24-12.75,4.26-8.5,8.5"/><path class="cls-20" d="M418.5,216.52c3.33-2.37,8.33,4.63,5,7-1.18-2.75,5.82-5.75,7-3"/><path class="cls-20" d="M395.5,211.52c-2,0-2,6,0,6"/><path class="cls-20" d="M402.5,210.52c-.85-2,6.15-5,7-3"/><path class="cls-20" d="M399.5,217.52c-1.31,3.06,5.69,6.06,7,3"/><path class="cls-20" d="M408.5,215.52c-3.3.42-2.3,8.42,1,8"/><path class="cls-20" d="M412.5,213.52c-1.39.47.61,6.47,2,6"/><path class="cls-20" d="M416.5,210.52c-1.39-2.32,3.61-5.32,5-3"/><path class="cls-20" d="M417.5,221.52c.83.83-1.17,2.83-2,2"/><rect class="cls-1" x="408" y="311.02" width="11" height="11"/><rect class="cls-1" x="500.5" y="344.52" width="9" height="9" rx="4.5"/><line class="cls-1" x1="434.5" y1="438.52" x2="434.5" y2="453.52"/><line class="cls-1" x1="443.5" y1="438.02" x2="443.5" y2="453.02"/><line class="cls-1" x1="430.5" y1="450.52" x2="447.5" y2="450.52"/><line class="cls-1" x1="431" y1="441.52" x2="448" y2="441.52"/><line class="cls-1" x1="173.02" y1="404.29" x2="162.41" y2="414.9"/><line class="cls-1" x1="179.74" y1="410.3" x2="169.13" y2="420.91"/><line class="cls-1" x1="161.7" y1="409.95" x2="173.72" y2="421.97"/><line class="cls-1" x1="168.42" y1="403.93" x2="180.44" y2="415.96"/><line class="cls-1" x1="384.5" y1="463.52" x2="404.5" y2="463.52"/><line class="cls-1" x1="399.5" y1="470.52" x2="418.5" y2="470.52"/><line class="cls-1" x1="391.5" y1="477.52" x2="410.5" y2="477.52"/><line class="cls-1" x1="371.5" y1="123.52" x2="379.5" y2="123.52"/><line class="cls-1" x1="375.5" y1="132.52" x2="382.5" y2="132.52"/><polygon class="cls-1" points="145 393.02 165 393.02 165 359.02 155 342.02 145 359.02 145 393.02"/><line class="cls-1" x1="151.5" y1="366.52" x2="151.5" y2="393.02"/><line class="cls-1" x1="151.5" y1="358.52" x2="165.5" y2="358.52"/><line class="cls-1" x1="155.5" y1="351.52" x2="160.59" y2="351.52"/><rect class="cls-1" x="137.5" y="324.52" width="12" height="12" rx="6"/><rect class="cls-21" x="116.5" y="437.52" width="11" height="11" rx="5.5"/><line class="cls-1" x1="4.5" y1="292.02" x2="4.5" y2="301.02"/><line class="cls-1" x1="9" y1="296.52" y2="296.52"/><rect class="cls-1" x="7.5" y="328.52" width="8" height="8" rx="4"/><line class="cls-1" x1="119.5" y1="243.52" x2="133.5" y2="243.52"/><line class="cls-1" x1="112.5" y1="235.52" x2="127.5" y2="235.52"/><line class="cls-1" x1="123.5" y1="226.52" x2="140.5" y2="226.52"/><line class="cls-1" x1="108.5" y1="195.52" x2="114.5" y2="202.52"/><line class="cls-1" x1="115" y1="196.02" x2="108" y2="202.02"/><line class="cls-21" x1="80.5" y1="457.52" x2="99.5" y2="457.52"/><line class="cls-21" x1="88.5" y1="450.52" x2="107.5" y2="450.52"/><line class="cls-21" x1="72.5" y1="443.52" x2="93.5" y2="443.52"/><path class="cls-1" d="M279.5,493.52v-13c14.19-18.24-12.81-39.24-27-21"/><path class="cls-3" d="M253.5,494.52v-3h-6c-5,0-3-9-3-9h-2l2-12c8.68-14,29.68-1,21,13v11"/><polygon class="cls-1" points="237.73 509.46 242.36 517.49 247 525.52 237.73 525.52 228.46 525.52 233.09 517.49 237.73 509.46"/><polyline class="cls-1" points="303 464.5 303 440.02 305.44 440.02"/><line class="cls-1" x1="303" y1="482.8" x2="303" y2="478.8"/><polyline class="cls-1" points="315.56 504.02 303 504.02 303 490.58"/><line class="cls-1" x1="334" y1="504.02" x2="323" y2="504.02"/><line class="cls-1" x1="344.44" y1="504.02" x2="341.56" y2="504.02"/><polyline class="cls-1" points="367 499.13 367 504.02 352.33 504.02"/><line class="cls-1" x1="367" y1="477.91" x2="367" y2="491.36"/><polyline class="cls-1" points="362.67 440.02 367 440.02 367 470.52"/><line class="cls-1" x1="352.33" y1="440.02" x2="356" y2="440.02"/><line class="cls-1" x1="340.22" y1="440.02" x2="345.44" y2="440.02"/><line class="cls-1" x1="332.78" y1="440.02" x2="334" y2="440.02"/><line class="cls-1" x1="313.22" y1="440.02" x2="332.78" y2="440.02"/><rect class="cls-1" x="317.5" y="445.52" width="7" height="7" rx="3.5"/><polyline class="cls-1" points="309.5 437.52 309.5 448.52 317.5 448.52"/><rect class="cls-1" x="309.5" y="453.52" width="7" height="7" rx="3.5"/><rect class="cls-1" x="322.5" y="463.52" width="7" height="7" rx="3.5"/><rect class="cls-1" x="338.5" y="460.52" width="7" height="7" rx="3.5"/><rect class="cls-1" x="345.5" y="446.52" width="7" height="7" rx="3.5"/><rect class="cls-1" x="331.5" y="471.52" width="7" height="7" rx="3.5"/><rect class="cls-1" x="324.5" y="481.52" width="7" height="7" rx="3.5"/><rect class="cls-1" x="326.5" y="492.52" width="7" height="7" rx="3.5"/><rect class="cls-1" x="307.5" y="491.52" width="7" height="7" rx="3.5"/><rect class="cls-1" x="341.5" y="481.52" width="7" height="7" rx="3.5"/><rect class="cls-1" x="353.5" y="483.52" width="7" height="7" rx="3.5"/><rect class="cls-1" x="344.5" y="492.52" width="7" height="7" rx="3.5"/><polyline class="cls-1" points="336.5 437.52 336.5 456.52 325.5 456.52 325.5 463.52"/><line class="cls-1" x1="348.5" y1="439.52" x2="348.5" y2="446.52"/><polyline class="cls-1" points="359.5 437.52 359.5 464.52 345.44 464.52"/><polyline class="cls-1" points="300.5 468.52 313.5 468.52 313.5 461.52"/><line class="cls-1" x1="299.5" y1="474.52" x2="331.5" y2="474.52"/><polyline class="cls-1" points="369.5 474.52 344.5 474.52 344.5 481.56"/><polyline class="cls-1" points="357.5 491.52 357.5 494.52 370.5 494.52"/><polyline class="cls-1" points="337.5 507.52 337.5 495.52 332.5 495.52"/><line class="cls-1" x1="348.5" y1="507.52" x2="348.5" y2="499.52"/><polyline class="cls-1" points="319.5 507.52 319.5 484.52 325.5 484.52"/><polyline class="cls-1" points="300.5 486.52 310.5 486.52 310.5 492.52"/><path class="cls-5" d="M210.5,487.52v33c0,4.77,8,4.77,8,0v-33c8.29-5.36,9.63-12.79,5-22h-5c2.91,5.9,2.86,13.18-2,13.5h-3c-4.64-.72-7.5-5-3-13.5h-5C201.15,475.27,202.58,482.7,210.5,487.52Z"/><polyline class="cls-5" points="190 434.02 190 501.02 141 501.02 141 445.02 190 445.02"/><path class="cls-22" d="M140.5,434H190a0,0,0,0,1,0,0v11a0,0,0,0,1,0,0H140.5a5.5,5.5,0,0,1-5.5-5.5v0A5.5,5.5,0,0,1,140.5,434Z"/><path class="cls-5" d="M138.28,439H141a0,0,0,0,1,0,0v62a0,0,0,0,1,0,0h0a6,6,0,0,1-6-6V442.3A3.28,3.28,0,0,1,138.28,439Z"/><line class="cls-23" x1="149.5" y1="457.52" x2="157.5" y2="457.52"/><line class="cls-23" x1="162.5" y1="456.52" x2="183.5" y2="456.52"/><line class="cls-23" x1="149.5" y1="464.52" x2="173.5" y2="464.52"/><line class="cls-23" x1="179.5" y1="464.52" x2="182.5" y2="464.52"/><line class="cls-23" x1="148.5" y1="471.52" x2="164.5" y2="471.52"/><line class="cls-23" x1="169.5" y1="471.52" x2="183.5" y2="471.52"/><rect class="cls-1" x="138.5" y="26.52" width="101" height="73" rx="11.06"/><rect class="cls-1" x="152.5" y="34.52" width="70" height="57"/><line class="cls-1" x1="163.5" y1="59.52" x2="178" y2="45.02"/><line class="cls-1" x1="160.5" y1="50.52" x2="168" y2="43.02"/><line class="cls-1" x1="146.5" y1="57.52" x2="146.5" y2="68.52"/><rect class="cls-3" x="226.5" y="59.52" width="8" height="7"/><polygon class="cls-1" points="67 123.02 110 123.02 110 97.02 89 97.02 82.5 90.52 66.5 90.52 67 123.02"/><polyline class="cls-1" points="80.5 85.52 80.5 79.52 106.5 79.52 112.5 85.52 112.5 92.52"/><line class="cls-11" x1="97" y1="147.02" x2="107" y2="147.02"/><line class="cls-11" x1="111" y1="147.02" x2="114" y2="147.02"/><line class="cls-11" x1="73" y1="154.02" x2="86" y2="154.02"/><line class="cls-11" x1="91" y1="159.02" x2="98" y2="159.02"/><line class="cls-11" x1="101" y1="159.02" x2="117" y2="159.02"/><polyline class="cls-11" points="31 344.62 31 324.02 121 324.02 121 377.02 60.67 377.02"/><line class="cls-11" x1="61" y1="385.02" x2="127" y2="385.02"/><line class="cls-11" x1="25" y1="317.02" x2="127" y2="317.02"/><path class="cls-5" d="M42.16,346.31A6,6,0,0,1,39,341v-5a6,6,0,0,1,6-6h0a6,6,0,0,1,6,6v5a6,6,0,0,1-6,6h0a5.92,5.92,0,0,1-2.84-.71S42,349,36,351s-9,13-9,13v11c0,4.74,7,4.74,7,0V359l1,44c-.53,4.82,8.47,5.82,9,1V384h4v20c0,4.2,8,4.2,8,0V356H82c5.53,0,5.53-7,0-7H50l-2-3"/><rect class="cls-5" x="69" y="395.02" width="14" height="18" rx="7"/><path class="cls-5" d="M65,418s7-9,20-2"/><rect class="cls-5" x="90" y="405.02" width="13" height="18" rx="6.5"/><path class="cls-5" d="M85,428s11-10,23,0"/><rect class="cls-5" x="111" y="395.02" width="13" height="18" rx="6.5"/><path class="cls-5" d="M106,418s11-10,23,0"/><polyline class="cls-1" points="92.48 233.02 14 233.02 14 173.02 98 173.02 98 233.02"/><polyline class="cls-24" points="97.5 233.52 109.5 270.52 4.5 270.52 14.5 233.52 91.15 233.52"/><line class="cls-24" x1="92.48" y1="233.52" x2="92.67" y2="233.52"/><rect class="cls-24" x="4.5" y="270.52" width="105" height="7"/><rect class="cls-24" x="22.5" y="183.52" width="67" height="41"/><line class="cls-24" x1="31.5" y1="189.52" x2="27.5" y2="193.52"/><line class="cls-24" x1="42.5" y1="190.52" x2="29" y2="204.02"/><rect class="cls-1" x="128.5" y="109.52" width="10" height="11"/><rect class="cls-1" x="327.5" y="38.52" width="50" height="26"/><rect class="cls-1" x="377.5" y="43.52" width="18" height="18"/><rect class="cls-3" x="385" y="47.02" width="4" height="4"/><rect class="cls-3" x="385" y="54.02" width="4" height="4"/><line class="cls-1" x1="174.5" y1="115.52" x2="174.5" y2="123.52"/><line class="cls-1" x1="170.5" y1="119.52" x2="178.5" y2="119.52"/><line class="cls-1" x1="329.5" y1="18.52" x2="329.5" y2="26.52"/><line class="cls-1" x1="325.5" y1="22.52" x2="333.5" y2="22.52"/><polygon class="cls-3" points="364 61.02 352 61.02 343 45.02 355 45.02 364 61.02"/><line class="cls-1" x1="255.5" y1="52.52" x2="275.5" y2="52.52"/><line class="cls-1" x1="271.5" y1="61.52" x2="291.5" y2="61.52"/><line class="cls-1" x1="289.5" y1="57.52" x2="308.5" y2="57.52"/><line class="cls-2" x1="265" y1="38.02" x2="299" y2="38.02"/><path class="cls-25" d="M296,24.52c4.14,0,7.5,3,7.5,6.75S300.14,38,296,38"/><path class="cls-1" d="M296.5,38.52a6.9,6.9,0,0,1-1.65-.19"/><path class="cls-26" d="M266,38a8.25,8.25,0,1,1,0-16.5"/><path class="cls-27" d="M264,21.52a8.29,8.29,0,0,1,1.5.14"/><path class="cls-28" d="M294.59,28a16,16,0,1,0-25.36-1.54"/><path class="cls-28" d="M269.23,26.47c.24.35.48.68.75,1"/></g></g></svg>